<svg width="393" height="312" viewBox="0 0 393 312" fill="none" xmlns="http://www.w3.org/2000/svg">
<g clip-path="url(#clip0_293_2920)">
<rect width="393" height="312" fill="white"/>
<rect x="49.498" y="95.3057" width="27.627" height="1.40476" rx="0.702381" transform="rotate(14.1133 49.498 95.3057)" fill="#DCF7FF"/>
<rect x="52.4009" y="92.8923" width="27.627" height="1.40476" rx="0.702381" transform="rotate(14.1133 52.4009 92.8923)" fill="#EDFBFF"/>
<rect x="49.877" y="88.948" width="27.627" height="1.40476" rx="0.702381" transform="rotate(14.1133 49.877 88.948)" fill="#DCF7FF"/>
<path d="M49.2621 89.9143C51.4892 95.9125 49.9587 98.8136 48.8442 98.8528C49.4711 99.0097 51.3728 99.041 53.9642 97.9119C56.5556 96.7829 82.7687 83.7201 95.5514 77.3298C96.1435 76.977 97.1606 75.8244 96.4918 74.0367C95.6559 71.802 88.1326 69.4498 76.8476 74.9776C75.4892 73.9583 72.5008 71.0964 71.4141 67.8032L72.9815 76.3889L56.3675 82.8576C53.9642 75.9969 46.5454 64.0866 36.0964 71.3316C41.4254 69.4498 46.3364 82.0343 49.2621 89.9143Z" fill="#7567F8"/>
<path d="M76.5341 87.5621L86.3562 82.6224L86.8787 84.1513C87.0877 84.9354 88.1535 86.5506 90.7448 86.7388C93.3362 86.927 98.512 87.7581 100.776 88.1501C102.935 91.0512 107.547 98.6176 108.717 105.674C109.283 109.085 104.747 114.636 98.0592 109.085C96.666 107.831 93.6497 103.604 92.7302 96.7358C90.3617 96.4614 81.6542 94.266 79.6689 92.2666C79.0071 91.6393 77.4537 89.8202 76.5341 87.5621Z" fill="#7567F8"/>
<path d="M36.0964 71.3316C35.4346 72.1941 34.3827 74.9305 35.4694 78.9764C36.8278 84.0337 42.0523 97.4415 48.8442 98.8528C49.9587 98.8136 51.4892 95.9125 49.2621 89.9143C46.3364 82.0343 41.4254 69.4498 36.0964 71.3316Z" fill="#413892"/>
<path d="M93.6681 21.1334C96.0549 19.0832 99.7584 20.1049 100.756 23.089L116.093 68.9482C117.218 72.3115 114.132 75.5673 110.713 74.6241L58.695 60.2729C55.2764 59.3297 54.2963 54.9521 56.9865 52.6414L93.6681 21.1334Z" fill="#7567F8"/>
<path d="M130.343 42.3754C131.871 42.3111 133.162 43.4975 133.226 45.0252L134.511 75.5596C134.576 77.0875 133.389 78.3784 131.862 78.4428C130.334 78.507 129.043 77.3201 128.979 75.7923L127.869 49.4274L104.189 61.6712C102.83 62.3735 101.159 61.8414 100.457 60.483C99.7546 59.1247 100.287 57.4547 101.645 56.7524L128.821 42.7015C129.248 42.4804 129.707 42.3811 130.157 42.3919C130.218 42.3852 130.28 42.378 130.343 42.3754Z" fill="#7567F8"/>
<path d="M41.7185 42.5433C40.7053 41.398 40.8122 39.648 41.9573 38.6346L64.8461 18.3837C65.9914 17.3705 67.7414 17.4775 68.7548 18.6225C69.768 19.7677 69.661 21.5177 68.516 22.5311L48.7515 40.0175L73.1862 50.6771C74.5879 51.2886 75.2287 52.9212 74.6171 54.3229C74.0056 55.7244 72.3731 56.3643 70.9715 55.7528L42.9312 43.52C42.4893 43.3272 42.1232 43.0326 41.8479 42.6762C41.8043 42.633 41.7598 42.5899 41.7185 42.5433Z" fill="#7567F8"/>
<ellipse cx="82.461" cy="46.5212" rx="1.99364" ry="3.98728" transform="rotate(18.5423 82.461 46.5212)" fill="white"/>
<ellipse cx="91.9864" cy="48.2934" rx="1.99364" ry="3.98728" transform="rotate(18.5423 91.9864 48.2934)" fill="white"/>
<ellipse cx="82.4535" cy="46.4269" rx="1.32395" ry="2.47648" transform="rotate(18.5423 82.4535 46.4269)" fill="black"/>
<ellipse cx="91.957" cy="48.5308" rx="1.25416" ry="2.61671" transform="rotate(18.5423 91.957 48.5308)" fill="black"/>
<circle cx="75.767" cy="49.8683" r="0.664547" transform="rotate(-0.716222 75.767 49.8683)" fill="black"/>
<circle cx="97.2612" cy="54.3788" r="0.664547" transform="rotate(-0.716222 97.2612 54.3788)" fill="black"/>
<path d="M75.8315 50.2161C80.6593 57.9088 85.1498 59.2243 97.3737 54.4882" stroke="black" stroke-width="0.886063"/>
<rect x="108.984" y="103.2" width="27.627" height="1.40476" rx="0.702381" transform="rotate(-6.40378 108.984 103.2)" fill="#DCF7FF"/>
<rect x="110.857" y="99.9226" width="27.627" height="1.40476" rx="0.702381" transform="rotate(-6.40378 110.857 99.9226)" fill="#C3F1FF"/>
<rect x="107.111" y="97.113" width="27.627" height="1.40476" rx="0.702381" transform="rotate(-6.40378 107.111 97.113)" fill="#DCF7FF"/>
<g opacity="0.12" filter="url(#filter0_f_293_2920)">
<ellipse cx="80.889" cy="120.02" rx="40.2698" ry="3.98016" fill="#413892"/>
</g>
<rect x="263.498" y="116.306" width="27.627" height="1.40476" rx="0.702381" transform="rotate(14.1133 263.498 116.306)" fill="#DCF7FF"/>
<rect x="266.401" y="113.892" width="27.627" height="1.40476" rx="0.702381" transform="rotate(14.1133 266.401 113.892)" fill="#EDFBFF"/>
<rect x="263.877" y="109.948" width="27.627" height="1.40476" rx="0.702381" transform="rotate(14.1133 263.877 109.948)" fill="#DCF7FF"/>
<path d="M263.262 110.914C265.489 116.913 263.959 119.814 262.844 119.853C263.471 120.01 265.373 120.041 267.964 118.912C270.556 117.783 296.769 104.72 309.551 98.3298C310.144 97.977 311.161 96.8244 310.492 95.0367C309.656 92.802 302.133 90.4498 290.848 95.9776C289.489 94.9583 286.501 92.0964 285.414 88.8032L286.981 97.3889L270.367 103.858C267.964 96.9969 260.545 85.0866 250.096 92.3316C255.425 90.4498 260.336 103.034 263.262 110.914Z" fill="#C3F1FF"/>
<path d="M290.534 108.562L300.356 103.622L300.879 105.151C301.088 105.935 302.153 107.551 304.745 107.739C307.336 107.927 312.512 108.758 314.776 109.15C316.935 112.051 321.547 119.618 322.717 126.674C323.283 130.085 318.747 135.636 312.059 130.085C310.666 128.831 307.65 124.604 306.73 117.736C304.362 117.461 295.654 115.266 293.669 113.267C293.007 112.639 291.454 110.82 290.534 108.562Z" fill="#C3F1FF"/>
<path d="M250.096 92.3316C249.435 93.1941 248.383 95.9305 249.469 99.9764C250.828 105.034 256.052 118.441 262.844 119.853C263.959 119.814 265.489 116.913 263.262 110.914C260.336 103.034 255.425 90.4498 250.096 92.3316Z" fill="#5D7D87"/>
<path d="M307.668 42.1334C310.055 40.0832 313.758 41.1049 314.756 44.089L330.093 89.9482C331.218 93.3115 328.132 96.5673 324.713 95.6241L272.695 81.2729C269.276 80.3297 268.296 75.9521 270.987 73.6414L307.668 42.1334Z" fill="#C3F1FF"/>
<path d="M344.344 63.3757C345.872 63.3114 347.163 64.4978 347.227 66.0255L348.513 96.5599C348.577 98.0877 347.39 99.378 345.862 99.4423C344.334 99.5066 343.043 98.3203 342.979 96.7924L341.87 70.4284L318.188 82.6714C316.83 83.3735 315.16 82.8415 314.458 81.4833C313.755 80.1248 314.287 78.4542 315.645 77.7519L342.821 63.7024C343.248 63.4818 343.706 63.3822 344.154 63.3926C344.217 63.3857 344.28 63.3784 344.344 63.3757Z" fill="#C3F1FF"/>
<path d="M255.719 63.5429C254.705 62.3975 254.812 60.6476 255.958 59.6343L278.846 39.3843C279.992 38.371 281.742 38.4777 282.755 39.6231C283.768 40.7684 283.66 42.5182 282.515 43.5315L262.752 61.0181L287.186 71.6776C288.588 72.2892 289.228 73.9208 288.617 75.3223C288.005 76.7239 286.373 77.3649 284.972 76.7534L256.931 64.5196C256.49 64.3268 256.123 64.0322 255.848 63.6758C255.805 63.6326 255.76 63.5896 255.719 63.5429Z" fill="#C3F1FF"/>
<ellipse cx="296.461" cy="67.5212" rx="1.99364" ry="3.98728" transform="rotate(18.5423 296.461 67.5212)" fill="white"/>
<ellipse cx="305.986" cy="69.2934" rx="1.99364" ry="3.98728" transform="rotate(18.5423 305.986 69.2934)" fill="white"/>
<ellipse cx="296.454" cy="67.4269" rx="1.32395" ry="2.47648" transform="rotate(18.5423 296.454 67.4269)" fill="black"/>
<ellipse cx="305.957" cy="69.5308" rx="1.25416" ry="2.61671" transform="rotate(18.5423 305.957 69.5308)" fill="black"/>
<circle cx="289.767" cy="70.8683" r="0.664547" transform="rotate(-0.716222 289.767 70.8683)" fill="black"/>
<circle cx="311.261" cy="75.3788" r="0.664547" transform="rotate(-0.716222 311.261 75.3788)" fill="black"/>
<path d="M289.832 71.2161C294.659 78.9088 299.15 80.2243 311.374 75.4882" stroke="black" stroke-width="0.886063"/>
<rect x="322.984" y="124.2" width="27.627" height="1.40476" rx="0.702381" transform="rotate(-6.40378 322.984 124.2)" fill="#DCF7FF"/>
<rect x="324.857" y="120.923" width="27.627" height="1.40476" rx="0.702381" transform="rotate(-6.40378 324.857 120.923)" fill="#C3F1FF"/>
<rect x="321.111" y="118.113" width="27.627" height="1.40476" rx="0.702381" transform="rotate(-6.40378 321.111 118.113)" fill="#DCF7FF"/>
<g opacity="0.12" filter="url(#filter1_f_293_2920)">
<ellipse cx="294.889" cy="141.02" rx="40.2698" ry="3.98016" fill="#5D7D87"/>
</g>
<rect x="115.961" y="250.721" width="59" height="3" rx="1.5" transform="rotate(14.1133 115.961 250.721)" fill="#DCF7FF"/>
<rect x="122.161" y="245.567" width="59" height="3" rx="1.5" transform="rotate(14.1133 122.161 245.567)" fill="#EDFBFF"/>
<rect x="116.771" y="237.143" width="59" height="3" rx="1.5" transform="rotate(14.1133 116.771 237.143)" fill="#DCF7FF"/>
<path d="M115.458 239.207C120.214 252.016 116.946 258.212 114.566 258.296C115.904 258.631 119.966 258.698 125.5 256.286C131.034 253.875 187.015 225.978 214.313 212.331C215.578 211.578 217.75 209.116 216.322 205.298C214.536 200.526 198.47 195.503 174.369 207.308C171.469 205.131 165.086 199.019 162.766 191.986L166.113 210.322L130.632 224.136C125.5 209.485 109.656 184.049 87.3414 199.521C98.7221 195.503 109.21 222.378 115.458 239.207Z" fill="#FF6A6A"/>
<path d="M173.7 234.183L194.676 223.634L195.792 226.899C196.238 228.574 198.514 232.023 204.048 232.425C209.582 232.827 220.636 234.602 225.471 235.439C230.082 241.635 239.931 257.793 242.43 272.864C243.638 280.148 233.95 292.003 219.669 280.148C216.693 277.468 210.252 268.443 208.288 253.775C203.23 253.189 184.634 248.5 180.395 244.23C178.981 242.89 175.664 239.006 173.7 234.183Z" fill="#FF6A6A"/>
<path d="M87.3414 199.521C85.9281 201.363 83.6817 207.207 86.0025 215.848C88.9034 226.648 100.061 255.282 114.566 258.296C116.946 258.212 120.214 252.016 115.458 239.207C109.21 222.378 98.7221 195.503 87.3414 199.521Z" fill="#704A4A"/>
<path d="M210.292 92.3187C215.389 87.9404 223.298 90.1224 225.429 96.4951L258.183 194.432C260.585 201.614 253.994 208.567 246.694 206.553L135.603 175.905C128.303 173.891 126.21 164.542 131.955 159.607L210.292 92.3187Z" fill="#FF6A6A"/>
<path d="M288.615 137.683C291.878 137.546 294.634 140.08 294.772 143.343L297.517 208.551C297.654 211.814 295.12 214.571 291.857 214.708C288.594 214.845 285.838 212.312 285.701 209.049L283.33 152.745L232.758 178.892C229.857 180.391 226.289 179.256 224.79 176.355C223.29 173.454 224.426 169.885 227.327 168.386L285.363 138.381C286.264 137.915 287.228 137.703 288.175 137.72C288.32 137.703 288.467 137.69 288.615 137.683Z" fill="#FF6A6A"/>
<path d="M99.3477 138.042C97.1837 135.596 97.4122 131.859 99.858 129.695L148.739 86.4472C151.185 84.2832 154.922 84.5118 157.086 86.9577C159.25 89.4037 159.022 93.1413 156.576 95.3053L114.368 132.648L166.549 155.413C169.543 156.719 170.911 160.205 169.605 163.198C168.299 166.191 164.814 167.559 161.821 166.253L101.938 140.127C101.002 139.719 100.224 139.098 99.6377 138.346C99.5385 138.248 99.4413 138.147 99.3477 138.042Z" fill="#FF6A6A"/>
<ellipse cx="186.358" cy="146.537" rx="4.25761" ry="8.51522" transform="rotate(18.5423 186.358 146.537)" fill="white"/>
<ellipse cx="206.7" cy="150.321" rx="4.25761" ry="8.51522" transform="rotate(18.5423 206.7 150.321)" fill="white"/>
<ellipse cx="186.342" cy="146.335" rx="2.82742" ry="5.28876" transform="rotate(18.5423 186.342 146.335)" fill="black"/>
<ellipse cx="206.637" cy="150.829" rx="2.67838" ry="5.58823" transform="rotate(18.5423 206.637 150.829)" fill="black"/>
<circle cx="172.061" cy="153.685" r="1.4192" transform="rotate(-0.716222 172.061 153.685)" fill="black"/>
<circle cx="217.965" cy="163.317" r="1.4192" transform="rotate(-0.716222 217.965 163.317)" fill="black"/>
<path d="M172.2 154.427C182.51 170.856 192.1 173.665 218.205 163.551" stroke="black" stroke-width="1.89227"/>
<rect x="243" y="267.581" width="59" height="3" rx="1.5" transform="rotate(-6.40378 243 267.581)" fill="#DCF7FF"/>
<rect x="247" y="260.581" width="59" height="3" rx="1.5" transform="rotate(-6.40378 247 260.581)" fill="#C3F1FF"/>
<rect x="239" y="254.581" width="59" height="3" rx="1.5" transform="rotate(-6.40378 239 254.581)" fill="#DCF7FF"/>
<g opacity="0.12" filter="url(#filter2_f_293_2920)">
<ellipse cx="183" cy="297.5" rx="86" ry="8.5" fill="#704A4A"/>
</g>
</g>
<defs>
<filter id="filter0_f_293_2920" x="34.3914" y="109.812" width="92.9951" height="20.4158" filterUnits="userSpaceOnUse" color-interpolation-filters="sRGB">
<feFlood flood-opacity="0" result="BackgroundImageFix"/>
<feBlend mode="normal" in="SourceGraphic" in2="BackgroundImageFix" result="shape"/>
<feGaussianBlur stdDeviation="3.11389" result="effect1_foregroundBlur_293_2920"/>
</filter>
<filter id="filter1_f_293_2920" x="248.391" y="130.812" width="92.9951" height="20.4158" filterUnits="userSpaceOnUse" color-interpolation-filters="sRGB">
<feFlood flood-opacity="0" result="BackgroundImageFix"/>
<feBlend mode="normal" in="SourceGraphic" in2="BackgroundImageFix" result="shape"/>
<feGaussianBlur stdDeviation="3.11389" result="effect1_foregroundBlur_293_2920"/>
</filter>
<filter id="filter2_f_293_2920" x="83.7" y="275.7" width="198.6" height="43.6" filterUnits="userSpaceOnUse" color-interpolation-filters="sRGB">
<feFlood flood-opacity="0" result="BackgroundImageFix"/>
<feBlend mode="normal" in="SourceGraphic" in2="BackgroundImageFix" result="shape"/>
<feGaussianBlur stdDeviation="6.65" result="effect1_foregroundBlur_293_2920"/>
</filter>
<clipPath id="clip0_293_2920">
<rect width="393" height="312" fill="white"/>
</clipPath>
</defs>
</svg>
