<svg width="245" height="274" viewBox="0 0 245 274" fill="none" xmlns="http://www.w3.org/2000/svg">
<path d="M118.851 15.0173C123.468 8.1165 133.605 8.09292 138.254 14.9721L209.694 120.694C214.934 128.447 209.393 138.907 200.035 138.929L57.6473 139.261C48.2896 139.282 42.7004 128.848 47.9036 121.07L118.851 15.0173Z" fill="#1DD874"/>
<path d="M176.41 122.358C177.451 119.761 179.895 119.264 181.87 121.246L216.356 155.875C218.33 157.857 219.087 161.569 218.046 164.167C217.006 166.764 214.561 167.262 212.587 165.28L178.101 130.651C176.127 128.669 175.369 124.956 176.41 122.358Z" fill="#1DD874"/>
<path d="M33.7113 117.134C31.287 117.42 29.0901 115.687 28.8035 113.262L23.0768 64.8097C22.7904 62.3853 24.5237 60.187 26.9481 59.9005C29.3726 59.6141 31.5701 61.3481 31.8566 63.7725L36.8011 105.611L73.0232 83.2655C75.101 81.984 77.825 82.6298 79.1067 84.7076C80.3881 86.7854 79.7424 89.5094 77.6646 90.7911L36.0963 116.432C35.4483 116.832 34.7376 117.044 34.0273 117.084C33.9235 117.104 33.8179 117.121 33.7113 117.134Z" fill="#1DD874"/>
<ellipse cx="111.261" cy="73.5212" rx="5.2606" ry="10.5212" fill="white"/>
<ellipse cx="140.261" cy="73.5212" rx="5.2606" ry="10.5212" fill="white"/>
<ellipse cx="111.177" cy="73.2857" rx="3.4935" ry="6.53467" fill="black"/>
<ellipse cx="140.177" cy="73.2857" rx="3.4935" ry="6.53467" fill="black"/>
<ellipse cx="126.268" cy="104.318" rx="7.12793" ry="11.2302" transform="rotate(-0.716222 126.268 104.318)" fill="black"/>
<ellipse cx="126.268" cy="104.318" rx="7.12793" ry="11.2302" transform="rotate(-0.716222 126.268 104.318)" fill="black"/>
<rect x="106.385" y="143.327" width="8.64904" height="74.1346" rx="3.70673" fill="#1DD874"/>
<path d="M137.274 147.034C137.274 144.986 138.934 143.327 140.981 143.327H142.217C144.264 143.327 145.923 144.986 145.923 147.034V213.755C145.923 215.802 144.264 217.462 142.217 217.462H140.981C138.934 217.462 137.274 215.802 137.274 213.755V150.123V147.034Z" fill="#1DD874"/>
<ellipse cx="96.458" cy="218.852" rx="19.0328" ry="7.78615" transform="rotate(-16.4332 96.458 218.852)" fill="#1DD874"/>
<ellipse cx="20.3209" cy="8.31311" rx="20.3209" ry="8.31311" transform="matrix(-0.95915 -0.282898 -0.282898 0.95915 178.685 216.497)" fill="#1DD874"/>
<path d="M232.414 5.5601L215.116 0L201.524 52.512L208.32 53.7476L232.414 5.5601Z" fill="#F2BB2F"/>
<circle cx="202.76" cy="61.7789" r="4.94231" fill="#F2BB2F"/>
<g opacity="0.12" filter="url(#filter0_f_106_1201)">
<ellipse cx="130.479" cy="246.498" rx="71.0457" ry="10.5024" fill="#1E5136"/>
</g>
<defs>
<filter id="filter0_f_106_1201" x="42.9999" y="219.562" width="174.958" height="53.8712" filterUnits="userSpaceOnUse" color-interpolation-filters="sRGB">
<feFlood flood-opacity="0" result="BackgroundImageFix"/>
<feBlend mode="normal" in="SourceGraphic" in2="BackgroundImageFix" result="shape"/>
<feGaussianBlur stdDeviation="8.21659" result="effect1_foregroundBlur_106_1201"/>
</filter>
</defs>
</svg>
