<svg width="248" height="266" viewBox="0 0 248 266" fill="none" xmlns="http://www.w3.org/2000/svg">
<path d="M32.4581 179.207C37.2142 192.016 33.9458 198.212 31.5655 198.296C32.9044 198.631 36.9657 198.698 42.4998 196.286C48.0339 193.875 104.015 165.978 131.313 152.331C132.578 151.578 134.75 149.116 133.322 145.298C131.536 140.526 115.47 135.503 91.3695 147.308C88.4685 145.131 82.0865 139.019 79.7657 131.986L83.113 150.322L47.6323 164.136C42.4999 149.485 26.6564 124.049 4.34139 139.521C15.7221 135.503 26.2099 162.378 32.4581 179.207Z" fill="#1D87D8"/>
<path d="M90.7 174.183L111.676 163.634L112.792 166.899C113.238 168.574 115.514 172.023 121.048 172.425C126.582 172.827 137.636 174.602 142.471 175.439C147.082 181.635 156.931 197.793 159.43 212.864C160.638 220.148 150.95 232.003 136.669 220.148C133.693 217.468 127.252 208.443 125.288 193.775C120.23 193.189 101.634 188.5 97.3945 184.23C95.9812 182.89 92.6637 179.006 90.7 174.183Z" fill="#1D87D8"/>
<path d="M4.34139 139.521C2.92811 141.363 0.681742 147.207 3.00249 155.848C5.90343 166.648 17.0608 195.282 31.5655 198.296C33.9458 198.212 37.2142 192.016 32.4581 179.207C26.2099 162.378 15.7221 135.503 4.34139 139.521Z" fill="#1A415E"/>
<path d="M127.291 32.3187C132.389 27.9404 140.298 30.1224 142.429 36.4951L175.182 134.432C177.585 141.614 170.994 148.567 163.693 146.553L52.6031 115.905C45.3023 113.891 43.2094 104.542 48.9545 99.607L127.291 32.3187Z" fill="#1D87D8"/>
<path d="M205.615 77.6839C208.878 77.5465 211.634 80.08 211.772 83.3429L214.518 148.551C214.655 151.814 212.121 154.571 208.858 154.708C205.595 154.846 202.838 152.312 202.701 149.049L200.331 92.7438L149.758 118.891C146.857 120.391 143.289 119.256 141.79 116.355C140.29 113.454 141.426 109.885 144.327 108.385L202.364 78.3804C203.262 77.9159 204.224 77.7043 205.169 77.7194C205.316 77.7022 205.465 77.6902 205.615 77.6839Z" fill="#1D87D8"/>
<path d="M16.3478 78.042C14.1837 75.596 14.4124 71.8584 16.8583 69.6944L65.7386 26.4475C68.1846 24.2835 71.9222 24.5121 74.0863 26.958C76.2501 29.4038 76.0215 33.1406 73.5759 35.3047L31.3673 72.6481L83.5493 95.4132C86.5426 96.7191 87.9109 100.204 86.6051 103.198C85.2991 106.191 81.8139 107.559 78.8206 106.253L18.9376 80.1275C18.002 79.7193 17.2238 79.0985 16.6378 78.346C16.5386 78.2486 16.4413 78.1477 16.3478 78.042Z" fill="#1D87D8"/>
<ellipse cx="103.358" cy="86.5367" rx="4.25761" ry="8.51522" transform="rotate(18.5423 103.358 86.5367)" fill="white"/>
<ellipse cx="123.7" cy="90.3213" rx="4.25761" ry="8.51522" transform="rotate(18.5423 123.7 90.3213)" fill="white"/>
<ellipse cx="103.341" cy="86.3351" rx="2.82742" ry="5.28876" transform="rotate(18.5423 103.341 86.3351)" fill="black"/>
<ellipse cx="123.637" cy="90.8286" rx="2.67838" ry="5.58823" transform="rotate(18.5423 123.637 90.8286)" fill="black"/>
<circle cx="89.0616" cy="93.6849" r="1.4192" transform="rotate(-0.716222 89.0616 93.6849)" fill="black"/>
<circle cx="134.964" cy="103.317" r="1.4192" transform="rotate(-0.716222 134.964 103.317)" fill="black"/>
<path d="M89.1997 94.4274C99.5098 110.856 109.1 113.665 135.205 103.551" stroke="black" stroke-width="1.89227"/>
<g opacity="0.12" filter="url(#filter0_f_187_2223)">
<ellipse cx="100" cy="243.5" rx="86" ry="8.5" fill="#1A415E"/>
</g>
<defs>
<filter id="filter0_f_187_2223" x="0.7" y="221.7" width="198.6" height="43.6" filterUnits="userSpaceOnUse" color-interpolation-filters="sRGB">
<feFlood flood-opacity="0" result="BackgroundImageFix"/>
<feBlend mode="normal" in="SourceGraphic" in2="BackgroundImageFix" result="shape"/>
<feGaussianBlur stdDeviation="6.65" result="effect1_foregroundBlur_187_2223"/>
</filter>
</defs>
</svg>
