<svg width="215" height="248" viewBox="0 0 215 248" fill="none" xmlns="http://www.w3.org/2000/svg">
<path d="M104.649 107.438C108.591 101.997 116.791 102.284 120.343 107.988L174.929 195.651C178.932 202.08 174.135 210.372 166.566 210.107L51.3959 206.074C43.827 205.809 39.6218 197.201 44.065 191.068L104.649 107.438Z" fill="#DFDFDF"/>
<path d="M209.845 171.946C212.012 169.502 211.788 165.765 209.345 163.599L55.3852 27.0588C52.9419 24.8919 49.2039 25.1162 47.037 27.5595C44.8701 30.0029 45.0943 33.7408 47.5377 35.9077L194.83 166.534L142.621 189.237C139.626 190.54 138.254 194.023 139.556 197.018C140.858 200.013 144.342 201.385 147.337 200.083L207.251 174.027C208.179 173.623 208.951 173.01 209.536 172.267C209.642 172.165 209.746 172.058 209.845 171.946Z" fill="#DFDFDF"/>
<path d="M7.34443 177.658C4.67186 175.781 4.02694 172.093 5.90396 169.42L104.534 28.9857C106.411 26.3132 110.1 25.6682 112.773 27.5452C115.445 29.4222 116.09 33.11 114.213 35.7825L20.7023 168.926L76.7426 178.961C79.9571 179.537 82.096 182.61 81.5204 185.824C80.9446 189.039 77.8721 191.178 74.6575 190.602L10.3466 179.085C9.34203 178.905 8.44255 178.482 7.69805 177.886C7.57869 177.814 7.46021 177.739 7.34443 177.658Z" fill="#DFDFDF"/>
<ellipse cx="93.9498" cy="165.73" rx="4.25761" ry="8.51522" transform="rotate(5.12434 93.9498 165.73)" fill="white"/>
<ellipse cx="114.615" cy="164.691" rx="4.25761" ry="8.51522" transform="rotate(5.12434 114.615 164.691)" fill="white"/>
<path d="M94.3468 160.409C95.0481 160.472 95.6674 161.067 96.0835 162.047C96.497 163.021 96.6925 164.342 96.5637 165.778C96.4348 167.214 96.0073 168.48 95.4272 169.365C94.8434 170.255 94.1282 170.729 93.4271 170.666C92.726 170.603 92.1063 170.01 91.6903 169.03C91.2768 168.056 91.0814 166.734 91.2101 165.298C91.3389 163.862 91.7665 162.596 92.3466 161.712C92.9303 160.821 93.6457 160.347 94.3468 160.409Z" fill="#656565" stroke="#656565" stroke-width="0.280064"/>
<path d="M115.159 159.772C115.811 159.831 116.393 160.444 116.78 161.482C117.164 162.508 117.337 163.905 117.2 165.426C117.064 166.946 116.645 168.291 116.085 169.233C115.519 170.184 114.838 170.684 114.186 170.625C113.534 170.567 112.952 169.954 112.564 168.917C112.181 167.89 112.007 166.493 112.143 164.972C112.28 163.451 112.699 162.108 113.259 161.166C113.825 160.214 114.507 159.714 115.159 159.772Z" fill="#656565" stroke="#656565" stroke-width="0.280064"/>
<circle cx="1.4192" cy="1.4192" r="1.18267" transform="matrix(0.969727 0.244193 0.244193 -0.969727 79.8994 189.529)" fill="#656565" stroke="#656565" stroke-width="0.473068"/>
<circle cx="1.4192" cy="1.4192" r="1.18267" transform="matrix(0.969727 0.244193 0.244193 -0.969727 126.785 190.811)" fill="#656565" stroke="#656565" stroke-width="0.473068"/>
<path d="M81.9292 187.809C95.7701 174.221 105.75 173.714 128.796 189.61" stroke="#656565" stroke-width="1.89227"/>
</svg>
