<svg width="57" height="57" viewBox="0 0 57 57" fill="none" xmlns="http://www.w3.org/2000/svg">
<path d="M8.30102 44.7705C9.46709 47.9112 8.66576 49.4301 8.08218 49.4507C8.41044 49.5328 9.40617 49.5492 10.763 48.958C12.1198 48.3668 25.8448 41.5273 32.5377 38.1814C32.8477 37.9967 33.3802 37.3932 33.0301 36.4571C32.5924 35.2871 28.6532 34.0555 22.7445 36.9498C22.0333 36.4161 20.4686 34.9176 19.8996 33.1934L20.7203 37.6888L12.0213 41.0757C10.763 37.4835 6.87858 31.2474 1.40754 35.0408C4.19778 34.0555 6.76913 40.6446 8.30102 44.7705Z" fill="#E63B66"/>
<path d="M22.5804 43.5389L27.7232 40.9525L27.9967 41.7531C28.1061 42.1636 28.6642 43.0093 30.021 43.1079C31.3778 43.2064 34.0878 43.6416 35.2732 43.8468C36.4039 45.3658 38.8184 49.3275 39.4312 53.0224C39.7273 54.8082 37.3522 57.7148 33.8507 54.8082C33.1213 54.1513 31.542 51.9385 31.0605 48.3422C29.8204 48.1985 25.2612 47.049 24.2217 46.0021C23.8752 45.6737 23.0619 44.7213 22.5804 43.5389Z" fill="#E63B66"/>
<path d="M1.40754 35.0408C1.06104 35.4924 0.510294 36.9251 1.07928 39.0435C1.79051 41.6915 4.52601 48.7117 8.08218 49.4507C8.66576 49.4301 9.46709 47.9112 8.30102 44.7705C6.76913 40.6446 4.19778 34.0555 1.40754 35.0408Z" fill="#692F4F"/>
<path d="M31.551 8.7572C32.8007 7.68374 34.7399 8.21872 35.2624 9.78113L43.2926 33.7926C43.8816 35.5536 42.2658 37.2583 40.4758 36.7645L13.2394 29.2503C11.4494 28.7564 10.9363 26.4644 12.3449 25.2545L31.551 8.7572Z" fill="#E63B66"/>
<path d="M50.755 19.8805C51.555 19.8468 52.2311 20.4676 52.2648 21.2676L52.9374 37.2555C52.9707 38.0552 52.3495 38.7308 51.5497 38.7645C50.7498 38.798 50.0744 38.1767 50.0407 37.3768L49.4598 23.5715L37.0605 29.983C36.3493 30.3506 35.4748 30.0715 35.1071 29.3603C34.7395 28.6491 35.0175 27.7745 35.7285 27.4067L49.9579 20.0505C50.1831 19.9341 50.4247 19.8817 50.6613 19.888C50.6923 19.8847 50.7235 19.8819 50.755 19.8805Z" fill="#E63B66"/>
<path d="M4.35169 19.9678C3.82117 19.3682 3.87681 18.452 4.47632 17.9214L16.4603 7.31809C17.06 6.78752 17.9771 6.84323 18.5076 7.44292C19.0382 8.0426 18.9815 8.95953 18.3818 9.49009L8.0332 18.6458L20.8278 24.2268C21.5616 24.5471 21.8963 25.4018 21.5761 26.1356C21.256 26.8694 20.4019 27.2052 19.6681 26.8851L4.98621 20.4793C4.75409 20.3781 4.56181 20.2235 4.41756 20.036C4.39527 20.0139 4.3728 19.9917 4.35169 19.9678Z" fill="#E63B66"/>
<ellipse cx="25.6837" cy="22.0501" rx="1.04385" ry="2.08771" transform="rotate(18.5423 25.6837 22.0501)" fill="white"/>
<ellipse cx="30.671" cy="22.9778" rx="1.04385" ry="2.08771" transform="rotate(18.5423 30.671 22.9778)" fill="white"/>
<ellipse cx="25.6795" cy="22.0006" rx="0.693209" ry="1.29666" transform="rotate(18.5423 25.6795 22.0006)" fill="black"/>
<ellipse cx="30.6556" cy="23.1025" rx="0.656669" ry="1.37009" transform="rotate(18.5423 30.6556 23.1025)" fill="black"/>
<circle cx="22.1789" cy="23.8026" r="0.347951" transform="rotate(-0.716222 22.1789 23.8026)" fill="black"/>
<circle cx="33.4324" cy="26.1644" r="0.347951" transform="rotate(-0.716222 33.4324 26.1644)" fill="black"/>
<path d="M22.2124 23.9844C24.7402 28.0122 27.0913 28.701 33.4917 26.2212" stroke="black" stroke-width="0.463935"/>
</svg>
